Coordinates
version=1
nRows=16
nColumns=32
inDegrees=yes

Units are S.I. units (second, meters, Newtons, ...)
If the header above contains a line with 'inDegrees', this indicates whether rotational values are in degrees (yes) or radians (no).

endheader
time	pelvis_tilt	pelvis_list	pelvis_rotation	pelvis_tx	pelvis_ty	pelvis_tz	hip_flexion_r	hip_adduction_r	hip_rotation_r	knee_angle_r	knee_adduction_r	med_cond_adduction_r	lat_cond_adduction_r	patella_r_constrained_knee_angle	ankle_angle_r	subtalar_angle_r	mtp_angle_r	hip_flexion_l	hip_adduction_l	hip_rotation_l	knee_angle_l	knee_adduction_l	med_cond_adduction_l	lat_cond_adduction_l	patella_l_constrained_knee_angle	ankle_angle_l	subtalar_angle_l	mtp_angle_l	lumbar_extension	lumbar_bending	lumbar_rotation
      0.17500000	     -0.77337332	      9.11332579	      6.23612947	     -0.48545831	      0.90144591	      0.22691952	     29.16870022	    -17.56617404	    -14.45217801	    -11.22390214	      4.76317945	     -0.00000000	     -0.00000000	     -0.19589405	     -0.18023991	      5.92391807	      0.00000000	    -22.08693068	      6.74700540	    -11.82930512	     -8.29853289	     -1.40151358	      0.00000000	      0.00000000	     -0.14483672	     -0.74937651	     12.21059085	      0.00000000	     -1.98461883	     -5.15147240	     -0.10393367
      0.18000000	     -0.54961318	      8.77393796	      6.40913136	     -0.47758856	      0.90154332	      0.22697445	     28.72099880	    -17.23735436	    -14.38355039	    -11.67641985	      4.72708023	      0.00000000	      0.00000000	     -0.20379197	     -0.77368208	      5.27736356	     -0.00000000	    -22.44165884	      6.24114508	    -11.78912175	     -8.79976198	     -1.60630556	     -0.00000000	     -0.00000000	     -0.15358482	     -1.49609852	     12.15218367	     -0.00000000	     -2.14674824	     -4.61540195	     -0.53701393
      0.18500000	     -0.25054832	      8.35566533	      6.68680822	     -0.46970363	      0.90192996	      0.22669693	     28.09485770	    -16.92301405	    -14.53016278	    -12.08656855	      4.76139117	     -0.00000000	     -0.00000000	     -0.21095042	     -1.45802679	      4.66190920	     -0.00000000	    -22.81738665	      5.64082494	    -11.66859335	     -9.36832695	     -1.87708162	     -0.00000000	     -0.00000000	     -0.16350815	     -2.28056895	     12.05303605	      0.00000000	     -2.40318730	     -4.10268451	     -1.39977784
      0.19000000	     -0.07086694	      8.09334538	      6.82487360	     -0.46184444	      0.90209026	      0.22680662	     27.76871847	    -16.71324215	    -14.44327719	    -12.70994762	      4.79459056	      0.00000000	      0.00000000	     -0.22183043	     -2.10819149	      4.08694033	     -0.00000000	    -23.01788617	      5.26747834	    -11.65837561	    -10.02178308	     -2.17513137	     -0.00000000	     -0.00000000	     -0.17491311	     -3.14324019	     11.92890877	     -0.00000000	     -2.51341731	     -3.71965723	     -1.91096630
      0.19500000	      0.19954834	      7.69453572	      6.98855406	     -0.45391044	      0.90251158	      0.22683733	     27.29580940	    -16.38121522	    -14.58607040	    -13.31678002	      4.79864627	     -0.00000000	     -0.00000000	     -0.23242166	     -2.76867717	      3.71312825	      0.00000000	    -23.22961300	      4.71403609	    -11.73183520	    -10.79438751	     -2.46413707	      0.00000000	      0.00000000	     -0.18839760	     -4.02361285	     11.83881722	      0.00000000	     -2.70217572	     -3.19679152	     -2.54668533
      0.20000000	      0.52729599	      7.21252152	      7.19409363	     -0.44599872	      0.90319541	      0.22668301	     26.66579154	    -15.98537081	    -14.76403677	    -13.77906388	      4.84817598	     -0.00000000	     -0.00000000	     -0.24049003	     -3.54654837	      3.16453887	      0.00000000	    -23.41414912	      4.07006347	    -11.84438846	    -11.67377241	     -2.79697962	      0.00000000	      0.00000000	     -0.20374576	     -4.97258483	     11.72771891	      0.00000000	     -2.94778222	     -2.62421808	     -3.41148190
      0.20500000	      0.71104358	      6.96935935	      7.22220782	     -0.43811312	      0.90359619	      0.22701133	     26.41566857	    -15.80755573	    -14.67236319	    -14.56502163	      4.93604172	     -0.00000000	     -0.00000000	     -0.25420758	     -4.14940689	      2.76889761	      0.00000000	    -23.42880830	      3.77466042	    -11.98917489	    -12.59411097	     -3.17413235	      0.00000000	      0.00000000	     -0.21980870	     -6.06262526	     11.47600129	      0.00000000	     -3.04833413	     -2.25393868	     -3.77935920
      0.21000000	      0.90999822	      6.68063372	      7.25647117	     -0.43016477	      0.90405368	      0.22729305	     26.18753492	    -15.62819270	    -14.77045975	    -15.49064249	      4.99417290	      0.00000000	      0.00000000	     -0.27036271	     -4.54296977	      2.80401786	     -0.00000000	    -23.37202408	      3.41735414	    -12.24124063	    -13.65269397	     -3.57552590	     -0.00000000	     -0.00000000	     -0.23828446	     -7.14665607	     11.30541016	      0.00000000	     -3.13701078	     -1.89919104	     -4.30211319
      0.21500000	      1.17836301	      6.30020771	      7.31560628	     -0.42231175	      0.90485983	      0.22747369	     25.68993150	    -15.30259880	    -14.66306841	    -16.01511693	      5.14525303	     -0.00000000	     -0.00000000	     -0.27951652	     -5.21772744	      2.06552078	     -0.00000000	    -23.31865609	      2.98065916	    -12.39632647	    -14.77020578	     -4.00684181	     -0.00000000	     -0.00000000	     -0.25778872	     -8.36632404	     10.86385046	     -0.00000000	     -3.32175955	     -1.35981246	     -4.79345298
      0.22000000	      1.59157220	      5.64697906	      7.41816583	     -0.41436993	      0.90596576	      0.22751902	     24.95182419	    -14.68297139	    -14.90436719	    -16.42786424	      5.21521448	     -0.00000000	     -0.00000000	     -0.28672032	     -5.86240026	      1.74345121	     -0.00000000	    -23.25860419	      2.11147699	    -12.91929401	    -16.14823677	     -4.34015371	      0.00000000	      0.00000000	     -0.28183990	     -9.48861535	     10.81043138	      0.00000000	     -3.61969468	     -0.66252981	     -5.73011323
      0.22500000	      1.89236314	      5.13686961	      7.40169867	     -0.40646207	      0.90688523	      0.22791587	     24.43086301	    -14.16214697	    -14.84130842	    -16.94817784	      5.32675645	      0.00000000	      0.00000000	     -0.29580151	     -6.32695364	      1.27273028	      0.00000000	    -23.02170748	      1.46107367	    -13.46779832	    -17.62902127	     -4.73838472	     -0.00000000	     -0.00000000	     -0.30768447	    -10.70899732	     10.60060752	      0.00000000	     -3.79959465	     -0.00580461	     -6.19294186
      0.23000000	      2.09479170	      4.81453807	      7.34903067	     -0.39859744	      0.90765912	      0.22835324	     24.11753549	    -13.89294831	    -14.69401231	    -17.67939864	      5.51015294	     -0.00000000	     -0.00000000	     -0.30856372	     -6.62733559	      0.88056367	     -0.00000000	    -22.65989287	      1.07556528	    -13.90856273	    -19.13562501	     -5.20403754	     -0.00000000	     -0.00000000	     -0.33397966	    -12.01710311	     10.19220898	     -0.00000000	     -3.89250760	      0.35500039	     -6.65677219
      0.23500000	      2.34426567	      4.34209764	      7.28180500	     -0.39077243	      0.90858399	      0.22885759	     23.64504954	    -13.38222678	    -14.46788232	    -18.16338632	      5.68369670	     -0.00000000	     -0.00000000	     -0.31701089	     -6.93294506	      0.34110992	     -0.00000000	    -22.21513008	      0.45344361	    -14.54021797	    -20.85403625	     -5.62185921	      0.00000000	      0.00000000	     -0.36397159	    -13.33936806	      9.84920989	     -0.00000000	     -4.02275530	      0.91768643	     -7.08778152
      0.24000000	      2.53076377	      3.92758785	      7.14624535	     -0.38290377	      0.90936441	      0.22959839	     23.32677992	    -12.91060865	    -14.22686415	    -18.79825552	      5.82304914	     -0.00000000	     -0.00000000	     -0.32809145	     -7.04569080	     -0.04446858	      0.00000000	    -21.66744291	     -0.09407607	    -15.21872494	    -22.62739727	     -6.05738333	      0.00000000	      0.00000000	     -0.39492258	    -14.71310717	      9.39670412	     -0.00000000	     -4.06751320	      1.44706488	     -7.29118337
      0.24500000	      2.72892228	      3.45553424	      7.03968554	     -0.37509453	      0.91022540	      0.23027121	     22.90941354	    -12.34624650	    -13.96012863	    -19.26333569	      5.97879644	     -0.00000000	     -0.00000000	     -0.33620863	     -7.15346961	     -0.65309590	      0.00000000	    -21.02068690	     -0.76117841	    -15.97147487	    -24.57976120	     -6.50088584	      0.00000000	      0.00000000	     -0.42899776	    -16.05220433	      8.96629723	      0.00000000	     -4.13187929	      1.97922463	     -7.64476075
      0.25000000	      2.96637949	      2.74785168	      6.90878263	     -0.36725760	      0.91111796	      0.23108884	     22.37796158	    -11.42536000	    -13.73647369	    -19.53300863	      6.03105964	      0.00000000	      0.00000000	     -0.34091531	     -7.28603491	     -1.28144540	     -0.00000000	    -20.32512975	     -1.79389305	    -16.93159040	    -26.69439233	     -6.85036575	     -0.00000000	     -0.00000000	     -0.46590504	    -17.32340906	      8.60849804	      0.00000000	     -4.20955838	      2.74324533	     -8.03066465
